<svg xmlns="http://www.w3.org/2000/svg" version="1.1" xmlns:xlink="http://www.w3.org/1999/xlink" xmlns:svgjs="http://svgjs.dev/svgjs" width="125" height="125" viewBox="0 0 1500 1500"><rect width="1500" height="1500" fill="#8b3c7f"></rect><g transform="matrix(0.6666666666666666,0,0,0.6666666666666666,249.39393939393938,438.5856950067477)"><svg viewBox="0 0 396 247" data-background-color="#8b3c7f" preserveAspectRatio="xMidYMid meet" height="935" width="1500" xmlns="http://www.w3.org/2000/svg" xmlns:xlink="http://www.w3.org/1999/xlink"><g id="tight-bounds" transform="matrix(1,0,0,1,0.2400000000000091,-0.09999999999999432)"><svg viewBox="0 0 395.52 247.2" height="247.2" width="395.52"><g><svg></svg></g><g><svg viewBox="0 0 395.52 247.2" height="247.2" width="395.52"><g transform="matrix(1,0,0,1,80.46974904642654,47.21520000000001)"><svg viewBox="0 0 234.5805019071469 152.76959999999997" height="152.76959999999997" width="234.5805019071469"><g><svg viewBox="0 0 234.5805019071469 152.76959999999997" height="152.76959999999997" width="234.5805019071469"><g><svg viewBox="0 0 234.5805019071469 152.76959999999997" height="152.76959999999997" width="234.5805019071469"><g><svg viewBox="0 0 234.5805019071469 152.76959999999997" height="152.76959999999997" width="234.5805019071469"><g id="textblocktransform"><svg viewBox="0 0 234.5805019071469 152.76959999999997" height="152.76959999999997" width="234.5805019071469" id="textblock"><g><svg viewBox="0 0 234.5805019071469 152.76959999999997" height="152.76959999999997" width="234.5805019071469"><g transform="matrix(1,0,0,1,0,0)"><svg width="234.5805019071469" viewBox="0.1 -31 54.97152772218999 35.8" height="152.76959999999997" data-palette-color="#ffffff"><path d="M20.1-0.6L20.1-0.6Q18.9 1.25 18.9 1.83 18.9 2.4 19.35 2.6L19.35 2.6Q19.35 2.7 18.53 3.23 17.7 3.75 16.25 3.75 14.8 3.75 14.8 3L14.8 3Q14.8 1.7 19.73-5.63 24.65-12.95 26.2-15.75L26.2-15.75Q29.6-21.85 29.6-25.4L29.6-25.4Q29.6-26.8 29.05-28L29.05-28Q28.2-29.8 24.95-29.8L24.95-29.8Q19-29.8 12.3-24.35L12.3-24.35Q7.2-20.15 4.45-15.65L4.45-15.65Q1.95-11.4 1.95-8.05L1.95-8.05Q1.95-3.25 6.4-3.15L6.4-3.15Q6.6-3.15 6.8-3.15L6.8-3.15Q12.7-3.15 15.75-7.3L15.75-7.3Q16.95-8.95 16.95-10.1 16.95-11.25 16.4-11.55L16.4-11.55Q16.35-11.6 16.35-11.75 16.35-11.9 16.65-11.9L16.65-11.9Q17.95-11.9 17.95-10.2L17.95-10.2Q17.95-9.15 16.95-7.35 15.95-5.55 13.33-3.95 10.7-2.35 7.35-2.35 4-2.35 2.05-4.3 0.1-6.25 0.1-9.55L0.1-9.55Q0.1-17.35 10.8-25.95L10.8-25.95Q13.5-28.1 17.82-29.55 22.15-31 25.68-31 29.2-31 30.65-29.68 32.1-28.35 32.1-26L32.1-26Q32.1-20.3 25.2-9.85L25.2-9.85Q26.75-11.8 30.25-14.8L30.25-14.8Q42.7-25.25 51.65-28.55L51.65-28.55Q52.1-28.75 52.65-28.75L52.65-28.75Q54.55-28.75 55.05-26.6L55.05-26.6Q55.3-25.75 52.65-23.05L52.65-23.05Q46.4-16.65 42.05-9.05 37.7-1.45 37.7 1.85L37.7 1.85Q37.7 2.65 38 2.98 38.3 3.3 38.95 3.18 39.6 3.05 41.68 2.15 43.75 1.25 44.4 1.1L44.4 1.1Q44.65 1.2 44.65 1.35L44.65 1.35Q44.65 2.1 42.03 3.45 39.4 4.8 38.1 4.8 36.8 4.8 36.45 4.35L36.45 4.35Q35.55 3.1 35.55 1.2L35.55 1.2Q35.55-3.1 40.15-11.15L40.15-11.15Q43.1-16.2 49.25-24.75L49.25-24.75Q42.6-24.15 32.05-14.25L32.05-14.25Q23.65-6.3 20.1-0.6Z" opacity="1" transform="matrix(1,0,0,1,0,0)" fill="#ffffff" class="wordmark-text-0" data-fill-palette-color="primary" id="text-0"></path></svg></g></svg></g></svg></g></svg></g></svg></g></svg></g></svg></g><path d="M132.749 41.215L132.749 0 379.949 0 379.949 247.2 132.749 247.2 132.749 205.985 146.526 205.985 146.526 233.423 366.172 233.423 366.172 13.777 146.526 13.777 146.526 41.215Z" fill="#ffffff" stroke="transparent" data-fill-palette-color="primary"></path></svg></g><defs></defs></svg><rect width="395.52" height="247.2" fill="none" stroke="none" visibility="hidden"></rect></g></svg></g></svg>